<?xml version="1.0" encoding="iso-8859-1"?>
<!-- Generator: Adobe Illustrator 19.0.0, SVG Export Plug-In . SVG Version: 6.00 Build 0)  -->
<svg version="1.1" id="Layer_1" xmlns="http://www.w3.org/2000/svg" xmlns:xlink="http://www.w3.org/1999/xlink" x="0px" y="0px"
	 viewBox="0 0 512 512" style="enable-background:new 0 0 512 512;" xml:space="preserve">
<g transform="translate(1 1)">
	<path style="fill:#00AD55;" d="M421.4,365.933c0,46.933-38.4,85.333-85.333,85.333s-85.333-38.4-85.333-85.333
		s38.4-85.333,85.333-85.333S421.4,319,421.4,365.933"/>
	<path style="fill:#00DA6C;" d="M395.8,365.933c0,46.933-32.427,85.333-72.533,85.333s-72.533-38.4-72.533-85.333
		S283.16,280.6,323.267,280.6S395.8,319,395.8,365.933"/>
	<path style="fill:#FFA800;" d="M307.053,285.72c1.707-6.827,3.413-14.507,3.413-22.187V92.867c0-46.933-38.4-85.333-85.333-85.333
		S139.8,45.933,139.8,92.867v170.667c0,46.933,38.4,85.333,85.333,85.333c10.24,0,19.627-1.707,29.013-5.12
		C260.973,316.44,281.453,295.107,307.053,285.72"/>
	<path style="fill:#FFE100;" d="M282.307,285.72c1.707-6.827,2.56-14.507,2.56-22.187V92.867c0-46.933-32.427-85.333-72.533-85.333
		S139.8,45.933,139.8,92.867v170.667c0,46.933,32.427,85.333,72.533,85.333c8.533,0,17.067-1.707,23.893-5.12
		C243.053,316.44,260.12,295.107,282.307,285.72"/>
	<path style="fill:#FFA800;" d="M310.467,502.467H139.8c0-18.773,15.36-34.133,34.133-34.133h102.4
		C295.107,468.333,310.467,483.693,310.467,502.467"/>
	<path style="fill:#FFE100;" d="M284.867,502.467H139.8c0-18.773,15.36-34.133,34.133-34.133h76.8
		C269.507,468.333,284.867,483.693,284.867,502.467"/>
	<path style="fill:#FFFFFF;" d="M225.133,7.533c1.707,0,2.56,0,4.267,0c-44.373,2.56-64,39.253-64,85.333v170.667
		c0,46.08,19.627,82.773,64,85.333c-1.707,0-2.56,0-4.267,0c-46.933,0-85.333-38.4-85.333-85.333V92.867
		C139.8,45.933,178.2,7.533,225.133,7.533"/>
	<path style="fill:#63D3FD;" d="M259.267,178.2c0,18.773-15.36,34.133-34.133,34.133S191,196.973,191,178.2
		s15.36-34.133,34.133-34.133S259.267,159.427,259.267,178.2"/>
	<path d="M225.133,476.867c-5.12,0-8.533-3.413-8.533-8.533v-68.267c0-5.12,3.413-8.533,8.533-8.533c5.12,0,8.533,3.413,8.533,8.533
		v68.267C233.667,473.453,230.253,476.867,225.133,476.867z"/>
	<path d="M191,109.933h-51.2c-5.12,0-8.533-3.413-8.533-8.533c0-5.12,3.413-8.533,8.533-8.533H191c5.12,0,8.533,3.413,8.533,8.533
		C199.533,106.52,196.12,109.933,191,109.933z"/>
	<path d="M310.467,109.933h-51.2c-5.12,0-8.533-3.413-8.533-8.533c0-5.12,3.413-8.533,8.533-8.533h51.2
		c5.12,0,8.533,3.413,8.533,8.533C319,106.52,315.587,109.933,310.467,109.933z"/>
	<path d="M310.467,161.133h-25.6c-5.12,0-8.533-3.413-8.533-8.533c0-5.12,3.413-8.533,8.533-8.533h25.6
		c5.12,0,8.533,3.413,8.533,8.533C319,157.72,315.587,161.133,310.467,161.133z"/>
	<path d="M310.467,212.333h-25.6c-5.12,0-8.533-3.413-8.533-8.533c0-5.12,3.413-8.533,8.533-8.533h25.6
		c5.12,0,8.533,3.413,8.533,8.533C319,208.92,315.587,212.333,310.467,212.333z"/>
	<path d="M310.467,263.533h-51.2c-5.12,0-8.533-3.413-8.533-8.533s3.413-8.533,8.533-8.533h51.2c5.12,0,8.533,3.413,8.533,8.533
		S315.587,263.533,310.467,263.533z"/>
	<path d="M165.4,161.133h-25.6c-5.12,0-8.533-3.413-8.533-8.533c0-5.12,3.413-8.533,8.533-8.533h25.6
		c5.12,0,8.533,3.413,8.533,8.533C173.933,157.72,170.52,161.133,165.4,161.133z"/>
	<path d="M165.4,212.333h-25.6c-5.12,0-8.533-3.413-8.533-8.533c0-5.12,3.413-8.533,8.533-8.533h25.6
		c5.12,0,8.533,3.413,8.533,8.533C173.933,208.92,170.52,212.333,165.4,212.333z"/>
	<path d="M191,263.533h-51.2c-5.12,0-8.533-3.413-8.533-8.533s3.413-8.533,8.533-8.533H191c5.12,0,8.533,3.413,8.533,8.533
		S196.12,263.533,191,263.533z"/>
	<path d="M310.467,511H139.8c-5.12,0-8.533-3.413-8.533-8.533c0-23.893,18.773-42.667,42.667-42.667h102.4
		c23.893,0,42.667,18.773,42.667,42.667C319,507.587,315.587,511,310.467,511z M150.04,493.933h151.04
		c-3.413-10.24-12.8-17.067-23.893-17.067H173.933C162.84,476.867,153.453,483.693,150.04,493.933z"/>
	<path d="M225.133,67.267c-5.12,0-8.533-3.413-8.533-8.533v-51.2c0-5.12,3.413-8.533,8.533-8.533c5.12,0,8.533,3.413,8.533,8.533
		v51.2C233.667,63.853,230.253,67.267,225.133,67.267z"/>
	<path d="M225.133,357.4c-5.12,0-8.533-3.413-8.533-8.533v-51.2c0-5.12,3.413-8.533,8.533-8.533c5.12,0,8.533,3.413,8.533,8.533
		v51.2C233.667,353.987,230.253,357.4,225.133,357.4z"/>
	<path d="M225.133,220.867c-23.893,0-42.667-18.773-42.667-42.667s18.773-42.667,42.667-42.667S267.8,154.307,267.8,178.2
		S249.027,220.867,225.133,220.867z M225.133,152.6c-14.507,0-25.6,11.093-25.6,25.6c0,14.507,11.093,25.6,25.6,25.6
		s25.6-11.093,25.6-25.6C250.733,163.693,239.64,152.6,225.133,152.6z"/>
	<path d="M336.067,459.8c-52.053,0-93.867-41.813-93.867-93.867s41.813-93.867,93.867-93.867s93.867,41.813,93.867,93.867
		S388.12,459.8,336.067,459.8z M336.067,289.133c-42.667,0-76.8,34.133-76.8,76.8s34.133,76.8,76.8,76.8s76.8-34.133,76.8-76.8
		S378.733,289.133,336.067,289.133z"/>
	<path d="M307.907,294.253c-1.707,0-4.267-0.853-5.973-2.56c-2.56-2.56-3.413-5.12-2.56-8.533c1.707-6.827,2.56-13.653,2.56-19.627
		V178.2c0-5.12,3.413-8.533,8.533-8.533h51.2c5.12,0,8.533,3.413,8.533,8.533v85.333c0,6.827-0.853,13.653-1.707,22.187
		c0,2.56-1.707,4.267-4.267,5.973c-2.56,1.707-4.267,1.707-6.827,0.853c-15.36-4.267-31.573-4.267-46.933,1.707
		C309.613,294.253,308.76,294.253,307.907,294.253z M319,186.733v76.8c0,3.413,0,6.827-0.853,10.24c11.093-2.56,23.04-2.56,34.133,0
		c0-3.413,0.853-6.827,0.853-10.24v-76.8H319z"/>
	<path d="M225.133,408.6c-80.213,0-145.067-64.853-145.067-145.067V178.2c0-5.12,3.413-8.533,8.533-8.533h51.2
		c5.12,0,8.533,3.413,8.533,8.533v85.333c0,42.667,34.133,76.8,76.8,76.8c8.533,0,17.067-1.707,25.6-4.267
		c2.56-0.853,5.973,0,8.533,1.707c2.56,2.56,3.413,5.12,2.56,8.533c-1.707,6.827-2.56,12.8-2.56,19.627
		c0,9.387,1.707,18.773,5.12,27.307c0.853,2.56,0.853,5.12-0.853,6.827c-0.853,2.56-3.413,3.413-5.973,4.267
		C247.32,406.893,236.227,408.6,225.133,408.6z M97.133,186.733v76.8c0,70.827,57.173,128,128,128c6.827,0,13.653-0.853,20.48-1.707
		c-2.56-7.68-3.413-16.213-3.413-23.893c0-3.413,0-6.827,0.853-10.24c-5.973,0.853-11.947,1.707-17.92,1.707
		c-52.053,0-93.867-41.813-93.867-93.867v-76.8H97.133z"/>
	<path d="M225.133,357.4c-52.053,0-93.867-41.813-93.867-93.867V92.867C131.267,40.813,173.08-1,225.133-1S319,40.813,319,92.867
		v170.667c0,7.68-0.853,16.213-3.413,23.893c-0.853,2.56-2.56,5.12-5.12,5.973c-23.893,8.533-41.813,28.16-48.64,52.053
		c-0.853,2.56-2.56,5.12-5.12,5.973C246.467,355.693,235.373,357.4,225.133,357.4z M225.133,16.067c-42.667,0-76.8,34.133-76.8,76.8
		v170.667c0,42.667,34.133,76.8,76.8,76.8c7.68,0,14.507-0.853,21.333-3.413c8.533-26.453,28.16-46.933,53.76-58.027
		c0.853-5.12,1.707-10.24,1.707-15.36V92.867C301.933,50.2,267.8,16.067,225.133,16.067z M307.053,285.72L307.053,285.72
		L307.053,285.72z"/>
	<path d="M327.533,417.133c-1.707,0-3.413-0.853-5.12-1.707c-4.267-2.56-5.12-7.68-2.56-11.947l51.2-76.8
		c2.56-4.267,7.68-5.12,11.947-2.56s5.12,7.68,2.56,11.947l-51.2,76.8C332.653,415.427,330.093,417.133,327.533,417.133z"/>
	<path d="M327.533,417.133c-2.56,0-4.267-0.853-5.973-2.56l-34.133-34.133c-3.413-3.413-3.413-8.533,0-11.947s8.533-3.413,11.947,0
		l34.133,34.133c3.413,3.413,3.413,8.533,0,11.947C331.8,416.28,330.093,417.133,327.533,417.133z"/>
</g>
<g>
</g>
<g>
</g>
<g>
</g>
<g>
</g>
<g>
</g>
<g>
</g>
<g>
</g>
<g>
</g>
<g>
</g>
<g>
</g>
<g>
</g>
<g>
</g>
<g>
</g>
<g>
</g>
<g>
</g>
</svg>
